<svg width="125" height="38" viewBox="0 0 125 38" fill="none" xmlns="http://www.w3.org/2000/svg">
<line x1="83.8431" y1="7.06799" x2="83.8431" y2="30.4554" stroke="black" stroke-width="2.48315"/>
<line y1="-1.24157" x2="23.3874" y2="-1.24157" transform="matrix(-4.37114e-08 -1 -1 4.37114e-08 122.273 30.4561)" stroke="black" stroke-width="2.48315"/>
<line x1="103.992" y1="9.15234" x2="103.992" y2="28.3713" stroke="black" stroke-width="2.48315"/>
<line x1="94.39" y1="0.137695" x2="94.39" y2="37.3861" stroke="black" stroke-width="2.48315"/>
<line y1="-1.24157" x2="37.2484" y2="-1.24157" transform="matrix(4.37114e-08 -1 -1 -4.37114e-08 112.672 37.3857)" stroke="black" stroke-width="2.48315"/>
<line x1="41.8978" y1="7.06799" x2="41.8978" y2="30.4554" stroke="black" stroke-width="2.48315"/>
<line x1="62.4291" y1="9.15234" x2="62.4291" y2="28.3713" stroke="black" stroke-width="2.48315"/>
<line x1="52.8353" y1="0.137695" x2="52.8353" y2="37.3861" stroke="black" stroke-width="2.48315"/>
<line y1="-1.24157" x2="37.2484" y2="-1.24157" transform="matrix(4.37114e-08 -1 -1 -4.37114e-08 71.1094 37.3857)" stroke="black" stroke-width="2.48315"/>
<line x1="2.0072" y1="7.06775" x2="2.0072" y2="30.4551" stroke="black" stroke-width="2.48315"/>
<line x1="20.8744" y1="9.15173" x2="20.8744" y2="28.3706" stroke="black" stroke-width="2.48315"/>
<line x1="11.2806" y1="0.137085" x2="11.2806" y2="37.3855" stroke="black" stroke-width="2.48315"/>
<line y1="-1.24157" x2="37.2484" y2="-1.24157" transform="matrix(4.37114e-08 -1 -1 -4.37114e-08 29.5547 37.3851)" stroke="black" stroke-width="2.48315"/>
</svg>
